# xmcd
# 
# Track frame offsets:
#     182
#     9300
#     28822
#     43467
#     66330
#     86550
#     103542
#     114075
#     130825
#     150740
#     166485
#     183617
#     200157
#     214830
#     240330
#     256047
#     273200
#     298670
# 
# Disc length: 4188
# 
# Revision: 2
# Processed by: cddbd v1.5.2PL0 Copyright (c) Steve Scherf et al.
# Submitted via: BonkEnc v1.0
# 
DISCID=00105a12
DTITLE=Queen - 18 Greatest Hits Live From Queen
DYEAR=0
DGENRE=
TTITLE0=Killer Queen
TTITLE1=Now I'm Here
TTITLE2=In the Lap of the Gods (revisited)
TTITLE3=Bohemian Rhapsody
TTITLE4=Love of My Life
TTITLE5=Somebody to Love
TTITLE6=We Will Rock You
TTITLE7=We are the Champions
TTITLE8=Crazy Little Thing Called Love
TTITLE9=Another One Bites the Dust
TTITLE10=Play the Game
TTITLE11=Save Me
TTITLE12=Under Pressure
TTITLE13=Radio Ga-Ga
TTITLE14=I Want to Break Free
TTITLE15=One Vision
TTITLE16=A Kind of Magic
TTITLE17=Who Wants to Live Forever?
EXTD=Catalogue #: Stentor STEN 91.005 (bootleg]\nrecorded in Zurich's Hallen Stadium in 1982 and 1986.
EXTT0=
EXTT1=
EXTT2=
EXTT3=
EXTT4=
EXTT5=
EXTT6=
EXTT7=
EXTT8=
EXTT9=
EXTT10=
EXTT11=
EXTT12=
EXTT13=
EXTT14=
EXTT15=
EXTT16=
EXTT17=
PLAYORDER=
